<?xml version="1.0" encoding="utf-8"?>
<!-- Generator: Adobe Illustrator 22.1.0, SVG Export Plug-In . SVG Version: 6.00 Build 0)  -->
<svg width="200px" height="200px" version="1.1" id="Layer_1_1_" xmlns="http://www.w3.org/2000/svg" xmlns:xlink="http://www.w3.org/1999/xlink" x="0px" y="0px"
	 viewBox="0 0 512 512" style="enable-background:new 0 0 512 512;" xml:space="preserve">
<style type="text/css">
	.st0{fill:#4C1EA5;}
	.st1{fill:#E58842;}
	.st2{fill:#F0C087;}
	.st3{fill:#E6AF78;}
	.st4{fill:#38363D;}
	.st5{fill:#E8DAC5;}
	.st6{fill:#6C253D;}
	.st7{fill:#F4B34A;}
</style>
<path class="st0" d="M384,112l-72-72h-56v456h232v-32l-56-56h-88v-48l56-56V192h-16V112z"/>
<path class="st1" d="M256,408H72c-26.5,0-48,21.5-48,48v40h232V408z"/>
<path class="st2" d="M256,448l-64-40v-64h64V448z"/>
<path class="st3" d="M192,344v34.6c20.2,8.9,41.7,13.4,64,13.4v-48H192z"/>
<path class="st2" d="M192,361c-14.1-7-26.9-16.2-37.8-27.1c-26-26.1-42.2-62.1-42.2-101.8v-64c0-17.2,3.1-33.5,8.6-48.8
	c0.3,0.1,0.7,0.1,1.1,0.2c2.6,0.4,5.2,0.6,7.9,0.6H256v40v48v64v88v16C233,376,211.3,370.6,192,361z"/>
<path class="st4" d="M256,120H129.7c-2.7,0-5.4-0.2-7.9-0.6c-0.4-0.1-0.8-0.1-1.1-0.2c-20.3-3.7-37.2-19.4-40.2-40.2
	c-3.8-27.4,15.4-51,41.1-54.5C125,33.5,133.8,40,144,40h112V120z"/>
<circle class="st5" cx="200" cy="208" r="16"/>
<path class="st2" d="M112,240H96c-8.8,0-16.8-3.6-22.6-9.4c-5.8-5.8-9.4-13.8-9.4-22.6c0-17.7,14.3-32,32-32h16V240z"/>
<path class="st3" d="M121.8,119.4c-0.4-0.1-0.8-0.1-1.1-0.2c-2,5.5-3.5,11.1-4.8,16.8H256v-16H129.7
	C127,120,124.3,119.8,121.8,119.4z"/>
<circle class="st6" cx="200" cy="208" r="16"/>
<g>
	<path class="st1" d="M367.1,106.4L308.7,48H256V32h59.3l63.1,63.1L367.1,106.4z"/>
	<path class="st1" d="M416,200h-59.3l-32-32H256v-16h75.3l32,32H416V200z"/>
	<path class="st1" d="M296,224h16v120h-16V224z"/>
	<path class="st1" d="M352,280h-16v-40h48v16h-32V280z"/>
	<path class="st1" d="M256,88h32v16h-32V88z"/>
	<path class="st1" d="M256,400h72v16h-72V400z"/>
	<path class="st1" d="M496,496h-16v-28.7l-42.4-42.4l11.3-11.3l47.1,47.1V496z"/>
	<path class="st1" d="M376,480h-35.3l-32-32H256v-16h59.3l32,32H376V480z"/>
	<path class="st1" d="M299.3,496H256v-16h36.7l29.7-29.7l11.3,11.3L299.3,496z"/>
	<path class="st1" d="M352,368h-32v-16h16v-40h16V368z"/>
	<path class="st1" d="M376,128h16v64h-16V128z"/>
	<path class="st1" d="M349.7,365.7l-11.3-11.3l53.7-53.7V264h16v43.3L349.7,365.7z"/>
	<path class="st1" d="M296,112h16v48h-16V112z"/>
	<path class="st1" d="M456,496h-16v-43.3l18.3-18.3l11.3,11.3L456,459.3V496z"/>
	<path class="st1" d="M360,400h56v16h-56V400z"/>
	<path class="st1" d="M256,264h48v16h-48V264z"/>
	<path class="st1" d="M355.3,224h-37.5v-16h30.8l3.3-3.3V192h16v19.3L355.3,224z"/>
	<path class="st1" d="M336,360h16v32h-16V360z"/>
	<path class="st1" d="M256,352h32v16h-32V352z"/>
	<path class="st1" d="M384,408h16v48h-16V408z"/>
	<path class="st1" d="M256,200h32v16h-32V200z"/>
</g>
<path class="st7" d="M384,136c-13.2,0-24-10.8-24-24s10.8-24,24-24s24,10.8,24,24S397.2,136,384,136z"/>
<path class="st7" d="M432,216c-13.2,0-24-10.8-24-24s10.8-24,24-24s24,10.8,24,24S445.2,216,432,216z"/>
<path class="st7" d="M400,272c-13.2,0-24-10.8-24-24s10.8-24,24-24s24,10.8,24,24C424,261.2,413.2,272,400,272z"/>
<path class="st7" d="M304,384c-13.2,0-24-10.8-24-24s10.8-24,24-24s24,10.8,24,24S317.2,384,304,384z"/>
<path class="st7" d="M344,432c-13.2,0-24-10.8-24-24s10.8-24,24-24s24,10.8,24,24S357.2,432,344,432z"/>
<path class="st7" d="M392,496c-13.2,0-24-10.8-24-24s10.8-24,24-24s24,10.8,24,24S405.2,496,392,496z"/>
<path class="st7" d="M432,432c-13.2,0-24-10.8-24-24s10.8-24,24-24s24,10.8,24,24S445.2,432,432,432z"/>
<path class="st7" d="M344,320c-13.2,0-24-10.8-24-24s10.8-24,24-24s24,10.8,24,24S357.2,320,344,320z"/>
<path class="st7" d="M304,232c-13.2,0-24-10.8-24-24s10.8-24,24-24s24,10.8,24,24S317.2,232,304,232z"/>
<path class="st7" d="M304,120c-13.2,0-24-10.8-24-24s10.8-24,24-24s24,10.8,24,24S317.2,120,304,120z"/>
<path class="st3" d="M96,176h16v64H96V176z"/>
</svg>
