<svg height="55px" id="Layer_1" data-name="Layer 1" xmlns="http://www.w3.org/2000/svg" viewBox="0 0 55.16 29.61"><defs><style>.cls-1{fill:#fff;}</style></defs><title>drone_mod</title><path class="cls-1" d="M54.35,2.79H47.41V2.73a2.53,2.53,0,1,0-5.06,0v.06H35.41a.81.81,0,1,0,0,1.61h6.08v1H13.82a.43.43,0,0,1,0,0V4.4h6.08a.81.81,0,0,0,0-1.61H13V2.73a2.53,2.53,0,1,0-5.05,0v.06H1A.81.81,0,0,0,1,4.4H7v.92A3.39,3.39,0,0,0,13.39,7h5.07l.76,2.26a4.25,4.25,0,0,0,4,2.91h3.6v2a2.54,2.54,0,1,0,1.61,0v-2h3.6a4.25,4.25,0,0,0,4-2.91L36.85,7h5.08a3.39,3.39,0,0,0,6.34-1.66V4.4h6.08a.81.81,0,1,0,0-1.61ZM9.52,2.73a.92.92,0,0,1,1.83,0v.06H9.52Zm.92,4.36A1.78,1.78,0,0,1,8.66,5.32V4.4h3.55v.92A1.78,1.78,0,0,1,10.44,7.09ZM27.66,17.42a.92.92,0,1,1,.91-.91A.92.92,0,0,1,27.66,17.42Zm6.9-8.69a2.63,2.63,0,0,1-2.5,1.81H23.25a2.63,2.63,0,0,1-2.5-1.81L20.17,7h15Zm9.4-6a.92.92,0,0,1,1.83,0v.06H44Zm2.69,2.59a1.78,1.78,0,0,1-3.55,0V4.4h3.55Z"/><path class="cls-1" d="M31.88,20.73a.8.8,0,0,0,0-1.14.81.81,0,0,0-1.14,0,4.37,4.37,0,0,1-6.17,0,.81.81,0,0,0-1.14,1.14,6,6,0,0,0,8.45,0Z"/><path class="cls-1" d="M21,22a.8.8,0,0,0,0,1.14,9.42,9.42,0,0,0,13.32,0A.81.81,0,1,0,33.17,22a7.81,7.81,0,0,1-11,0A.8.8,0,0,0,21,22Z"/><path class="cls-1" d="M35.61,24.46a11.26,11.26,0,0,1-15.91,0,.81.81,0,0,0-1.14,1.14,12.88,12.88,0,0,0,18.19,0,.8.8,0,0,0,0-1.14A.81.81,0,0,0,35.61,24.46Z"/></svg>