<?xml version="1.0" encoding="utf-8"?>
<!-- Generator: Adobe Illustrator 22.1.0, SVG Export Plug-In . SVG Version: 6.00 Build 0)  -->
<svg height="55px" version="1.1" id="Capa_1" xmlns="http://www.w3.org/2000/svg" xmlns:xlink="http://www.w3.org/1999/xlink" x="0px" y="0px"
	 viewBox="0 0 55 38.3" style="enable-background:new 0 0 55 38.3;" xml:space="preserve">
<style type="text/css">
	.st0{fill:#FFFFFF;}
</style>
<g>
	<g>
		<path class="st0" d="M53.9,35.5c-2.8,0-5.3-1.2-7.1-3.4c-0.4-0.5-1.1-0.8-1.7-0.8c-0.7,0-1.3,0.3-1.7,0.8
			c-1.7,2.2-4.3,3.4-7.1,3.4c-2.8,0-5.3-1.2-7.1-3.4c-0.4-0.5-1.1-0.8-1.7-0.8c-0.7,0-1.3,0.3-1.7,0.8c-1.7,2.2-4.3,3.4-7.1,3.4
			c-0.6,0-1.1,0.5-1.1,1.1c0,0.6,0.5,1.1,1.1,1.1c3.4,0,6.6-1.5,8.8-4.2c0,0,0,0,0.1,0c0,0,0,0,0.1,0c2.1,2.7,5.3,4.2,8.8,4.2
			c3.4,0,6.6-1.5,8.8-4.2c0,0,0,0,0.1,0s0,0,0.1,0c2.1,2.7,5.3,4.2,8.8,4.2c0.6,0,1.1-0.5,1.1-1.1C55,36,54.5,35.5,53.9,35.5z"/>
	</g>
</g>
<g>
	<g>
		<path class="st0" d="M15.2,35.5c-1.4,0-1.4,2.2,0,2.2C16.6,37.7,16.6,35.5,15.2,35.5z"/>
	</g>
</g>
<g>
	<g>
		<path class="st0" d="M53.9,25.8c-2.8,0-5.3-1.2-7.1-3.4c-0.4-0.5-1.1-0.8-1.7-0.8s-1.3,0.3-1.7,0.8c-1.1,1.4-2.5,2.4-4.1,2.9
			l1.9-8c1.5-0.7,2.9-1.8,3.9-3.1c0,0,0.1,0,0.1,0c0,0,0,0,0,0c0,0,0,0,0,0c2.1,2.7,5.3,4.2,8.8,4.2c0.6,0,1.1-0.5,1.1-1.1
			c0-0.6-0.5-1.1-1.1-1.1c-2.8,0-5.3-1.2-7.1-3.4c-0.4-0.5-1.1-0.8-1.7-0.8c0,0,0,0,0,0c-0.7,0-1.3,0.3-1.8,0.9
			c-0.2,0.2-0.3,0.4-0.5,0.6l-0.9-1.2c0,0,0,0,0,0L33.3,1C33,0.6,32.4,0.4,32,0.7L19.3,7c0,0,0,0,0,0L17,8.2
			c-0.5,0.3-0.7,0.9-0.5,1.4c0.3,0.5,0.9,0.7,1.4,0.5l0.3-0.2l-1.4,6.1c-2-0.4-3.9-1.6-5.2-3.2c-0.4-0.5-1.1-0.8-1.7-0.8h0
			c-0.7,0-1.3,0.3-1.7,0.8c-1.7,2.2-4.3,3.4-7.1,3.4c-0.6,0-1.1,0.5-1.1,1.1c0,0.6,0.5,1.1,1.1,1.1c3.4,0,6.6-1.5,8.8-4.2
			c0,0,0,0,0.1,0c0,0,0,0,0.1,0c1.6,2,3.9,3.4,6.4,4l-1.6,6.8c-1.2-0.6-2.3-1.4-3.1-2.5c-0.4-0.5-1.1-0.8-1.7-0.8
			c-0.7,0-1.3,0.3-1.7,0.8c-1.7,2.2-4.3,3.4-7.1,3.4c-0.6,0-1.1,0.5-1.1,1.1C0,27.5,0.5,28,1.1,28c3.4,0,6.6-1.5,8.8-4.2
			c0,0,0,0,0.1,0s0,0,0.1,0c1.4,1.7,3.2,3,5.2,3.7c0,0,0,0,0,0c0,0,0,0,0,0c1.1,0.4,2.3,0.6,3.5,0.6c1.6,0,3.2-0.3,4.7-1
			c0,0,0,0,0,0c0,0,0,0,0,0c1.6-0.7,3-1.8,4.1-3.2c0,0,0,0,0.1,0c0,0,0,0,0.1,0c0.8,1,1.7,1.8,2.7,2.5c0,0,0,0,0,0c0,0,0,0,0,0
			c1.8,1.1,3.9,1.8,6,1.8c0.6,0,1.1,0,1.7-0.1c0,0,0,0,0,0c0,0,0,0,0,0c2.8-0.4,5.3-1.9,7.1-4.1c0,0,0,0,0.1,0s0,0,0.1,0
			c2.1,2.7,5.3,4.2,8.8,4.2c0.6,0,1.1-0.5,1.1-1.1S54.5,25.8,53.9,25.8z M30.2,23.4c-0.3-0.3-0.6-0.6-0.9-1
			c-0.4-0.5-1.1-0.8-1.7-0.8c-0.7,0-1.3,0.3-1.7,0.8c-0.4,0.4-0.7,0.9-1.2,1.2l1.2-5.3l5.3,1.2L30.2,23.4z M36.9,25.8
			c-0.2,0-0.4,0-0.6,0c-1.5,0-2.9-0.4-4.2-1.1l1.3-5.7c0.1-0.6-0.2-1.2-0.8-1.3L25.2,16c-0.3-0.1-0.6,0-0.8,0.1
			c-0.2,0.2-0.4,0.4-0.5,0.7L22,25.2c-1.1,0.4-2.2,0.6-3.3,0.6c-0.6,0-1.3-0.1-1.9-0.2l3.9-17L32.1,3l7.7,10.1L36.9,25.8z"/>
	</g>
</g>
<g>
	<g>
		<path class="st0" d="M30.3,7.2c-2,0-3.6,1.6-3.6,3.6c0,2,1.6,3.6,3.6,3.6c2,0,3.6-1.6,3.6-3.6C33.8,8.8,32.2,7.2,30.3,7.2z
			 M30.3,12.2c-0.8,0-1.4-0.6-1.4-1.4c0-0.8,0.6-1.4,1.4-1.4s1.4,0.6,1.4,1.4C31.6,11.6,31,12.2,30.3,12.2z"/>
	</g>
</g>
</svg>
