<?xml version="1.0" encoding="utf-8"?>
<!-- Generator: Adobe Illustrator 22.1.0, SVG Export Plug-In . SVG Version: 6.00 Build 0)  -->
<svg height="55px" version="1.1" id="Capa_1" xmlns="http://www.w3.org/2000/svg" xmlns:xlink="http://www.w3.org/1999/xlink" x="0px" y="0px"
	 viewBox="0 0 51 55" style="enable-background:new 0 0 51 55;" xml:space="preserve">
<style type="text/css">
	.st0{fill:#FFFFFF;}
</style>
<g>
	<g>
		<path class="st0" d="M7.1,26.6c0-0.5,0-1,0.1-1.5H5.1c-1.7,0-3.1,1.4-3.1,3.1v6c0,1.7,1.4,3.1,3.1,3.1h2V26.6z"/>
		<path class="st0" d="M46.3,25.1h-2.1c0,0.5,0.1,1,0.1,1.5v10.7h2c1.7,0,3.1-1.4,3.1-3.1v-6C49.4,26.5,48,25.1,46.3,25.1z"/>
		<path class="st0" d="M41.9,44.6v-7.3V26.6c0-0.5,0-1-0.1-1.5c-0.7-7.6-6.6-13.7-14.1-14.6V9.4V8.2V7.5c1.2-0.7,2-2,2-3.5
			c0-2.2-1.8-4-4-4c-2.2,0-4,1.8-4,4c0,1.5,0.8,2.8,2,3.5v0.6v1.2v1.2c-7.5,0.9-13.4,7-14.1,14.6c0,0.5-0.1,1-0.1,1.5v10.6v7.3h8.9
			v-3.4c0-1,0.8-1.8,1.8-1.8h10.9c1,0,1.8,0.8,1.8,1.8v3.4L41.9,44.6L41.9,44.6z M17.9,34.8c-2.4,0-4.4-2-4.4-4.4s2-4.4,4.4-4.4
			c2.4,0,4.4,2,4.4,4.4S20.3,34.8,17.9,34.8z M29.7,30.4c0-2.4,2-4.4,4.4-4.4s4.4,2,4.4,4.4s-2,4.4-4.4,4.4S29.7,32.8,29.7,30.4z"/>
		<path class="st0" d="M44.4,46.9h-0.2H32.9H18.4H7.1H6.9c-0.8,0-1.5,0.7-1.5,1.5v5.1c0,0.8,0.7,1.5,1.5,1.5h37.6
			c0.8,0,1.5-0.7,1.5-1.5v-5.1C45.9,47.6,45.3,46.9,44.4,46.9z"/>
	</g>
</g>
</svg>
