<?xml version="1.0" encoding="utf-8"?>
<!-- Generator: Adobe Illustrator 22.1.0, SVG Export Plug-In . SVG Version: 6.00 Build 0)  -->
<svg width="55px" height="55px" version="1.1" id="Layer_1" xmlns="http://www.w3.org/2000/svg" xmlns:xlink="http://www.w3.org/1999/xlink" x="0px" y="0px"
	 viewBox="0 0 512 512" style="enable-background:new 0 0 512 512;" xml:space="preserve">
<style type="text/css">
	.st0{fill:#FFFFFF;}
</style>
<path class="st0" d="M256,512h-18.5c-6.8,0-13.3-2.7-18.1-7.5l-7.1-7.1c-1.6-1.6-3.8-2.5-6-2.5H25.6C11.5,494.9,0,483.5,0,469.3
	V136.5c0-14.1,11.5-25.6,25.6-25.6h17.1c4.7,0,8.5,3.8,8.5,8.5c0,4.7-3.8,8.5-8.5,8.5H25.6c-4.7,0-8.5,3.8-8.5,8.5v332.8
	c0,4.7,3.8,8.5,8.5,8.5h180.7c6.8,0,13.3,2.7,18.1,7.5l7.1,7.1c1.6,1.6,3.8,2.5,6,2.5H256c4.7,0,8.5,3.8,8.5,8.5
	C264.5,508.2,260.7,512,256,512z"/>
<path class="st0" d="M274.5,512H256c-4.7,0-8.5-3.8-8.5-8.5c0-4.7,3.8-8.5,8.5-8.5h18.5c2.3,0,4.4-0.9,6-2.5l7.1-7.1
	c4.8-4.8,11.3-7.5,18.1-7.5h180.7c4.7,0,8.5-3.8,8.5-8.5V136.5c0-4.7-3.8-8.5-8.5-8.5h-17.1c-4.7,0-8.5-3.8-8.5-8.5
	c0-4.7,3.8-8.5,8.5-8.5h17.1c14.1,0,25.6,11.5,25.6,25.6v332.8c0,14.1-11.5,25.6-25.6,25.6H305.7c-2.3,0-4.4,0.9-6,2.5l-7.1,7.1
	C287.8,509.3,281.3,512,274.5,512z"/>
<path class="st0" d="M256,469.5c-5.2,0-10.1-2.4-13.3-6.5c-21.6-28.2-111.3-20.9-188-4.6c-5,1.1-10.2-0.1-14.1-3.3
	c-4.1-3.3-6.4-8.2-6.4-13.4V92.2c-0.1-8,5.5-15,13.4-16.7c28.7-6.3,57.8-10.8,87.1-13.6c3.1-0.3,6.1,1.1,7.8,3.6
	c1.8,2.5,2.1,5.8,0.7,8.6c-1.3,2.8-4,4.6-7.1,4.9c-28.6,2.7-56.9,7.1-84.9,13.2l0.1,349.5c50.9-10.8,172.8-31.3,205.1,11
	c31.7-42.3,153.6-21.8,204.6-11l-0.1-349.4c-28-6.1-56.3-10.6-84.9-13.3c-3.1-0.2-5.8-2.1-7.1-4.9c-1.3-2.8-1-6.1,0.7-8.6
	c1.8-2.5,4.8-3.9,7.8-3.6c29.3,2.8,58.3,7.3,87.1,13.6c7.9,1.7,13.4,8.7,13.4,16.7v349.4c0,5.2-2.3,10.2-6.4,13.4
	c-4,3.2-9.2,4.4-14.2,3.3c-76.6-16.2-166.3-23.6-187.9,4.7C266.1,467.1,261.2,469.5,256,469.5z"/>
<path class="st0" d="M256,469.3c-4.7,0-8.5-3.8-8.5-8.5v-93.9c0-4.7,3.8-8.5,8.5-8.5c4.7,0,8.5,3.8,8.5,8.5v93.9
	C264.5,465.5,260.7,469.3,256,469.3z"/>
<path class="st0" d="M255.8,47c-4.7,0-8.5-3.8-8.5-8.5c0-1.3-0.1-2.7-0.4-3.9c-2.8-10.6-12.5-17.8-23.4-17.4
	c-7.8-0.1-15.1,3.4-19.9,9.6c-2.5,3.4-3.9,7.5-3.9,11.8c0,4.7-3.8,8.5-8.5,8.5c-4.7,0-8.5-3.8-8.5-8.5c0-7.9,2.6-15.6,7.3-21.9
	C197.8,6,210.2-0.1,223.4,0c18.9-0.4,35.5,12.4,40.1,30.7c0.6,2.5,0.9,5.1,0.8,7.7c0,2.3-0.9,4.4-2.5,6C260.2,46.1,258,47,255.8,47z
	"/>
<path class="st0" d="M167.3,88.8c-1.6,0-3.2-0.5-4.6-1.4c-10-6.3-16.8-16.7-18.6-28.4c-0.3-1.9-0.5-3.8-0.5-5.7
	c0.8-23.6,20.5-42.1,44.1-41.4c3.7,0,7.4,0.4,11,1.3c4.6,1.1,7.3,5.8,6.2,10.4c-1.1,4.6-5.8,7.3-10.4,6.2c-2.2-0.6-4.5-0.8-6.8-0.8
	c-14.2-0.7-26.3,10.2-27.1,24.3c0,1,0.1,2,0.3,3c1,6.9,5,13,11,16.7c3.2,2,4.6,5.9,3.6,9.6S171.1,88.8,167.3,88.8z"/>
<path class="st0" d="M126.8,114.3c-4.3,0-7.9-3.1-8.4-7.4c-0.4-2.9-0.6-5.8-0.7-8.7c-0.8-21.4,12.2-41,32.3-48.5
	c2.9-0.9,6.1-0.2,8.3,1.9c2.2,2.1,3.2,5.2,2.6,8.1c-0.7,3-2.9,5.4-5.8,6.3c-13,5.3-21.2,18.2-20.4,32.2c0,2.1,0.2,4.2,0.5,6.3
	c0.6,4.7-2.6,9-7.3,9.6C127.6,114.2,127.2,114.3,126.8,114.3z"/>
<path class="st0" d="M119.8,197.4c-1.6,0-3.2-0.5-4.5-1.3C107,190.8,100.7,183,97,174c-0.1-0.2-0.1-0.3-0.2-0.5
	c-3.3-7.7-5-16-4.9-24.4c0-24,13.3-45.1,32.4-51.4c2.9-1,6.1-0.4,8.4,1.7c2.3,2,3.3,5.2,2.7,8.2c-0.6,3-2.9,5.4-5.8,6.4
	c-12.1,4-20.6,18.4-20.6,35.2c0,6.2,1.2,12.4,3.7,18c0.1,0.2,0.2,0.4,0.3,0.7c2.4,5.7,6.4,10.5,11.4,13.9c3.2,2,4.7,5.9,3.6,9.6
	C126.9,194.9,123.6,197.4,119.8,197.4z"/>
<path class="st0" d="M107.6,246.7c-2.1,0-4-0.7-5.6-2.1c-10.9-11.1-16.9-26.2-16.6-41.7c-0.2-13.6,4.3-26.8,12.7-37.4
	c2.2-2.9,6-4.1,9.5-2.9c3.5,1.2,5.8,4.4,5.8,8.1v0.1c0,2-0.7,3.9-2,5.5c-12.7,16.8-11.8,40.2,2.1,55.9c2.5,2.4,3.3,6.1,2,9.3
	C114.2,244.6,111,246.7,107.6,246.7z"/>
<path class="st0" d="M214.8,349.9c-9.4,0-18.7-2.4-27-6.9c-5.8-3.2-11-7.5-15.1-12.7l-10.1-12.4c-2.3-2.7-4.9-5.1-7.8-7L127.7,293
	c-9.6-6.3-16.8-15.7-20.3-26.6L99.5,241c-1.3-3.7,0.1-7.8,3.3-10c3.3-2.2,7.6-1.8,10.5,0.9c1.1,1,1.9,2.3,2.4,3.8l7.9,25.6
	c2.3,7.2,7.1,13.3,13.4,17.5l27.1,17.9c4.3,2.9,8.2,6.4,11.6,10.4l10.2,12.5c2.8,3.5,6.2,6.4,10.1,8.5c12.5,6.6,27.7,6.1,39.7-1.5
	l15.5-10.2c2.5-1.7,5.8-1.9,8.5-0.5c2.7,1.4,4.5,4.1,4.7,7.1c0.2,3-1.3,6-3.8,7.6l-15.5,10.2C236.2,346.8,225.6,349.9,214.8,349.9z"
	/>
<path class="st0" d="M255.8,47c-4.7,0-8.5-3.8-8.5-8.5v-3.7c-0.1-0.5-0.2-1-0.3-1.5c-0.3-2.2,0.4-4.4,1.8-6.2
	c1.4-1.7,3.4-2.8,5.7-3.1c2.5-0.2,4.9,0.6,6.8,2.2c1.9,1.6,3,3.8,3.1,6.3v6C264.3,43.1,260.5,47,255.8,47z"/>
<path class="st0" d="M321,47c-4.7,0-8.5-3.8-8.5-8.5c0-4.3-1.4-8.4-4-11.8c-4.8-6.1-12.1-9.7-19.9-9.6c-10.9-0.4-20.6,6.8-23.4,17.3
	c-0.3,1.3-0.5,2.7-0.5,4.1c0,4.7-3.8,8.5-8.5,8.5c-4.7,0-8.5-3.8-8.5-8.5c0-2.7,0.3-5.3,0.9-7.9c4.6-18.3,21.2-30.9,40-30.5
	c13.2-0.1,25.6,6,33.6,16.5c4.7,6.3,7.3,14,7.3,22c0,2.3-0.9,4.4-2.5,6C325.4,46.1,323.3,47,321,47z"/>
<path class="st0" d="M344.7,88.8c-3.8,0-7.1-2.5-8.2-6.1c-1.1-3.6,0.4-7.5,3.6-9.6c5.9-3.6,9.9-9.6,10.9-16.4
	c0.2-1.1,0.3-2.2,0.3-3.3c-0.8-14.2-12.9-25-27.1-24.4c-2.3,0-4.6,0.3-6.8,0.8c-4.5,1.1-9.1-1.7-10.2-6.2c-1.1-4.5,1.6-9.1,6.1-10.3
	c3.6-0.9,7.3-1.3,10.9-1.3c23.6-0.7,43.3,17.8,44.1,41.4c0,2-0.2,4-0.5,6c-1.8,11.6-8.6,21.9-18.5,28.1
	C347.9,88.3,346.3,88.8,344.7,88.8z"/>
<path class="st0" d="M385.2,114.3c-0.4,0-0.8,0-1.2-0.1c-4.7-0.6-7.9-5-7.3-9.6c0.3-2.1,0.5-4.2,0.5-6.3c0.8-14-7.4-26.9-20.4-32.2
	c-4.5-1.4-7-6.2-5.6-10.7c1.4-4.5,6.2-7,10.7-5.6c20.1,7.5,33.1,27.1,32.3,48.5c0,2.9-0.3,5.8-0.7,8.7
	C393.1,111.1,389.5,114.3,385.2,114.3z"/>
<path class="st0" d="M392.2,197.4c-3.8,0-7.1-2.5-8.2-6.2c-1.1-3.7,0.4-7.6,3.6-9.6c5.1-3.4,9.1-8.3,11.5-14
	c0.1-0.2,0.2-0.4,0.3-0.7c2.5-5.7,3.8-11.8,3.7-18c0-16.7-8.5-31.2-20.6-35.2c-4.4-1.5-6.8-6.3-5.3-10.7c1.5-4.4,6.2-6.9,10.7-5.5
	c19,6.3,32.4,27.4,32.4,51.4c0,8.4-1.6,16.7-4.9,24.4L415,174c-3.7,9.1-10.1,16.8-18.3,22.2C395.4,197,393.8,197.4,392.2,197.4z"/>
<path class="st0" d="M404.4,246.6c-3.4,0-6.5-2.1-7.9-5.2c-1.3-3.2-0.6-6.8,1.8-9.3l0.1-0.1c14-15.7,14.9-39.2,2.2-56
	c-2-2.4-2.5-5.7-1.4-8.7c1.2-2.9,3.9-5,7-5.3c3.1-0.3,6.2,1.1,8,3.6c8.2,10.6,12.6,23.7,12.4,37.1c0.3,15.4-5.5,30.3-16.2,41.4
	C408.8,245.8,406.7,246.6,404.4,246.6z"/>
<path class="st0" d="M297.2,349.9c-10.8,0-21.4-3.1-30.4-9.1l-15.5-10.2c-2.4-1.6-3.8-4.3-3.8-7.1v-33.8c0-4.7,3.8-8.5,8.5-8.5
	c4.7,0,8.5,3.8,8.5,8.5v29.2l11.6,7.7c12,7.6,27.2,8.1,39.8,1.4c3.9-2.1,7.3-5,10-8.4l10.1-12.5c3.4-4,7.3-7.6,11.6-10.5l27.2-17.9
	c6.4-4.1,11.1-10.2,13.4-17.4l7.9-25.6c0.9-3,3.4-5.3,6.5-5.9c3.1-0.6,6.3,0.5,8.3,2.9c2,2.4,2.5,5.8,1.3,8.7l-7.7,24.9
	c-3.5,11-10.7,20.4-20.4,26.7l-27.1,17.9c-3,2-5.6,4.4-7.9,7.1l-10,12.3c-4.2,5.1-9.3,9.4-15.1,12.6
	C315.9,347.5,306.6,349.9,297.2,349.9z"/>
<path class="st0" d="M256.2,47c-4.7,0-8.5-3.8-8.5-8.5v-6c0-2.4,1-4.7,2.8-6.3c1.8-1.6,4.1-2.4,6.5-2.2c4.8,0.4,8.3,4.5,8.1,9.3
	c0,0.5-0.1,1.1-0.3,1.6v3.6c0,2.3-0.9,4.4-2.5,6C260.7,46.1,258.5,47,256.2,47z"/>
<path class="st0" d="M219.5,315.8c-11.6,0.4-22.1-7-25.6-18.2c-3.5-10.2-23-16.1-29.6-17.4c-4.6-0.9-7.7-5.4-6.8-10
	c0.9-4.6,5.4-7.7,10-6.8c3.6,0.7,35.1,7.3,42.5,28.5c0.9,2.7,2.8,4.9,5.4,6c2.6,1.2,5.5,1.2,8.1,0.1c4.5-1.3,9.2,1.2,10.6,5.6
	c1.4,4.4-1,9.2-5.5,10.7C225.6,315.3,222.6,315.8,219.5,315.8z"/>
<path class="st0" d="M292.5,315.8c-3.1,0-6.1-0.5-9.1-1.4c-4.4-1.5-6.8-6.2-5.4-10.7c1.4-4.4,6.1-6.9,10.6-5.6c2.6,1.1,5.5,1,8-0.1
	c2.5-1.2,4.5-3.4,5.3-6c7.4-21.2,38.9-27.8,42.5-28.5c4.6-0.9,9.1,2.1,10,6.8c0.9,4.6-2.1,9.1-6.8,10c-6.6,1.3-26,7.2-29.6,17.4
	C314.6,308.7,304.2,316.2,292.5,315.8z"/>
<path class="st0" d="M292.5,315.8c-3.1,0-6.1-0.5-9.1-1.4c-4.4-1.5-6.8-6.2-5.4-10.7c1.4-4.4,6.1-6.9,10.6-5.6c2.6,1.1,5.5,1,8-0.1
	c2.5-1.2,4.5-3.4,5.3-6c7.4-21.2,38.9-27.8,42.5-28.5c4.6-0.9,9.1,2.1,10,6.8c0.9,4.6-2.1,9.1-6.8,10c-6.6,1.3-26,7.2-29.6,17.4
	C314.6,308.7,304.2,316.2,292.5,315.8z"/>
<path class="st0" d="M169.1,247.6c-14.4-0.3-27.1-9.4-32.1-22.9c-1.6-4.4,0.8-9.3,5.2-10.9s9.3,0.8,10.9,5.2
	c2.5,6.8,8.8,11.3,16,11.6c4.7,0,8.5,3.8,8.5,8.5C177.6,243.8,173.8,247.6,169.1,247.6L169.1,247.6z"/>
<path class="st0" d="M342.9,247.6c-4.7,0-8.5-3.8-8.5-8.5c0-4.7,3.8-8.5,8.5-8.5c7.2-0.3,13.4-4.8,16-11.5c1.6-4.4,6.4-6.8,10.9-5.2
	c4.4,1.6,6.8,6.4,5.2,10.9C370.1,238.2,357.3,247.3,342.9,247.6z"/>
<path class="st0" d="M238.9,238.9c-4.7,0-8.5-3.8-8.5-8.5c0-10.5-1.1-10.7-14.8-12.7c-7.5-0.9-14.9-2.5-22-4.8
	c-18.3-6-30.9-22.9-31.4-42.2c0-4.7,3.8-8.5,8.5-8.6c4.7,0,8.5,3.8,8.6,8.5c0.5,12,8.4,22.4,19.8,26.1c6.2,2,12.6,3.3,19.1,4.1
	c13.8,2,29.4,4.3,29.4,29.6C247.5,235.1,243.6,238.9,238.9,238.9z"/>
<path class="st0" d="M238.9,93.9c-4.7,0-8.5-3.8-8.5-8.5c0-8.1-16.9-8.5-17.1-8.5c-4.7,0-8.5-3.8-8.5-8.5c0-4.7,3.8-8.5,8.5-8.5
	c11.8,0,34.1,5.4,34.1,25.6C247.5,90.1,243.6,93.9,238.9,93.9z"/>
<path class="st0" d="M273.1,238.9c-4.7,0-8.5-3.8-8.5-8.5c0-25.3,15.6-27.6,29.4-29.6c6.5-0.8,12.9-2.2,19.1-4.1
	c11.4-3.7,19.3-14.1,19.8-26.1c0.1-4.7,3.9-8.4,8.5-8.4h0.1c4.7,0,8.5,3.8,8.5,8.5c-0.5,19.3-13.1,36.2-31.4,42.2
	c-7.2,2.3-14.6,3.9-22,4.8c-13.7,2-14.8,2.2-14.8,12.7C281.6,235.1,277.8,238.9,273.1,238.9z"/>
<path class="st0" d="M273.1,93.9c-4.7,0-8.5-3.8-8.5-8.5c0-20.2,22.3-25.6,34.1-25.6c4.7,0,8.5,3.8,8.5,8.5c0,4.7-3.8,8.5-8.5,8.5
	c-0.3,0-17.1,0.5-17.1,8.5C281.6,90.1,277.8,93.9,273.1,93.9z"/>
<path class="st0" d="M213.3,170.7c-4.7,0-8.5-3.8-8.5-8.5c0-4.7,3.8-8.5,8.5-8.5c0.3,0,17.1-0.5,17.1-8.5c0-4.7,3.8-8.5,8.5-8.5
	s8.5,3.8,8.5,8.5C247.5,165.3,225.1,170.7,213.3,170.7z"/>
<path class="st0" d="M298.7,170.7c-11.8,0-34.1-5.4-34.1-25.6c0-4.7,3.8-8.5,8.5-8.5c4.7,0,8.5,3.8,8.5,8.5c0,8.1,16.9,8.5,17.1,8.5
	c4.7,0,8.5,3.8,8.5,8.5C307.2,166.9,303.4,170.7,298.7,170.7z"/>
<path class="st0" d="M85.3,341.3h-8.5c-4.7,0-8.5-3.8-8.5-8.5c0-4.7,3.8-8.5,8.5-8.5h8.5c4.7,0,8.5,3.8,8.5,8.5
	C93.9,337.5,90.1,341.3,85.3,341.3z"/>
<path class="st0" d="M145.1,341.3h-25.6c-4.7,0-8.5-3.8-8.5-8.5c0-4.7,3.8-8.5,8.5-8.5h25.6c4.7,0,8.5,3.8,8.5,8.5
	C153.6,337.5,149.8,341.3,145.1,341.3z"/>
<path class="st0" d="M128,375.5H76.8c-4.7,0-8.5-3.8-8.5-8.5c0-4.7,3.8-8.5,8.5-8.5H128c4.7,0,8.5,3.8,8.5,8.5
	C136.5,371.7,132.7,375.5,128,375.5z"/>
<path class="st0" d="M187.7,375.5h-25.6c-4.7,0-8.5-3.8-8.5-8.5c0-4.7,3.8-8.5,8.5-8.5h25.6c4.7,0,8.5,3.8,8.5,8.5
	C196.3,371.7,192.5,375.5,187.7,375.5z"/>
<path class="st0" d="M93.9,409.6H76.8c-4.7,0-8.5-3.8-8.5-8.5c0-4.7,3.8-8.5,8.5-8.5h17.1c4.7,0,8.5,3.8,8.5,8.5
	C102.4,405.8,98.6,409.6,93.9,409.6z"/>
<path class="st0" d="M213.3,409.6H128c-4.7,0-8.5-3.8-8.5-8.5c0-4.7,3.8-8.5,8.5-8.5h85.3c4.7,0,8.5,3.8,8.5,8.5
	C221.9,405.8,218.1,409.6,213.3,409.6z"/>
<path class="st0" d="M435.2,341.3h-8.5c-4.7,0-8.5-3.8-8.5-8.5c0-4.7,3.8-8.5,8.5-8.5h8.5c4.7,0,8.5,3.8,8.5,8.5
	C443.7,337.5,439.9,341.3,435.2,341.3z"/>
<path class="st0" d="M392.5,341.3h-25.6c-4.7,0-8.5-3.8-8.5-8.5c0-4.7,3.8-8.5,8.5-8.5h25.6c4.7,0,8.5,3.8,8.5,8.5
	C401.1,337.5,397.2,341.3,392.5,341.3z"/>
<path class="st0" d="M435.2,375.5H384c-4.7,0-8.5-3.8-8.5-8.5c0-4.7,3.8-8.5,8.5-8.5h51.2c4.7,0,8.5,3.8,8.5,8.5
	C443.7,371.7,439.9,375.5,435.2,375.5z"/>
<path class="st0" d="M349.9,375.5h-25.6c-4.7,0-8.5-3.8-8.5-8.5c0-4.7,3.8-8.5,8.5-8.5h25.6c4.7,0,8.5,3.8,8.5,8.5
	C358.4,371.7,354.6,375.5,349.9,375.5z"/>
<path class="st0" d="M435.2,409.6h-17.1c-4.7,0-8.5-3.8-8.5-8.5c0-4.7,3.8-8.5,8.5-8.5h17.1c4.7,0,8.5,3.8,8.5,8.5
	C443.7,405.8,439.9,409.6,435.2,409.6z"/>
<path class="st0" d="M384,409.6h-85.3c-4.7,0-8.5-3.8-8.5-8.5c0-4.7,3.8-8.5,8.5-8.5H384c4.7,0,8.5,3.8,8.5,8.5
	C392.5,405.8,388.7,409.6,384,409.6z"/>
</svg>
