<?xml version="1.0" encoding="utf-8"?>
<!-- Generator: Adobe Illustrator 22.1.0, SVG Export Plug-In . SVG Version: 6.00 Build 0)  -->
<svg width="55px" height="55px" version="1.1" id="Layer_1" xmlns="http://www.w3.org/2000/svg" xmlns:xlink="http://www.w3.org/1999/xlink" x="0px" y="0px"
	 viewBox="0 0 55 55" style="enable-background:new 0 0 55 55;" xml:space="preserve">
<style type="text/css">
	.st0{fill:#FFFFFF;}
</style>
<path class="st0" d="M5.3,17.7h3.5v1.8H5.3V17.7z"/>
<path class="st0" d="M52.3,14.2c1.5,0,2.7-1.2,2.7-2.7V2.7C55,1.2,53.8,0,52.3,0H39.9c-1.5,0-2.7,1.2-2.7,2.7v8.9
	c0,1.5,1.2,2.7,2.7,2.7h2.7V16h-1.8v1.8h4.4v8.9h-3.7c-0.7-0.7-1.6-1.2-2.6-1.5c0-0.1,0-0.2,0-0.3c0-3.9-3.2-7.1-7.1-7.1
	c-2.4,0-4.7,1.3-6,3.3c-0.9-0.4-1.9-0.6-2.9-0.6c-2.9,0-5.6,1.9-6.6,4.6c-0.7,0.1-1.3,0.4-1.9,0.7H8v-2.7h3.5c1.5,0,2.7-1.2,2.7-2.7
	V2.7C14.2,1.2,13,0,11.5,0H2.7C1.2,0,0,1.2,0,2.7v17.7c0,1.5,1.2,2.7,2.7,2.7h3.5v4.4h6.5c-0.4,0.5-0.7,1.1-0.9,1.8H8V39H4.4
	c-1.5,0-2.7,1.2-2.7,2.7v8H0v2.7C0,53.8,1.2,55,2.7,55h14.2c1.5,0,2.7-1.2,2.7-2.7v-2.7h-1.8v-8c0-1.5-1.2-2.7-2.7-2.7H9.8v-8h1.8
	c0,3.4,2.8,6.2,6.2,6.2h19.5c3.1,0,5.7-2.3,6.1-5.3H47V39h-6.2v16H55V39h-6.2v-8.9h-5.4c-0.1-0.6-0.3-1.2-0.6-1.8H47V17.7h4.4V16
	h-1.8v-1.8H52.3z M12.4,14.2H1.8V5.3h10.6C12.4,5.3,12.4,14.2,12.4,14.2z M2.7,1.8h8.9c0.5,0,0.9,0.4,0.9,0.9v0.9H1.8V2.7
	C1.8,2.2,2.2,1.8,2.7,1.8z M1.8,20.4V16h10.6v4.4c0,0.5-0.4,0.9-0.9,0.9H2.7C2.2,21.3,1.8,20.9,1.8,20.4z M17.7,52.3
	c0,0.5-0.4,0.9-0.9,0.9H2.7c-0.5,0-0.9-0.4-0.9-0.9v-0.9h16L17.7,52.3L17.7,52.3z M16,41.7v8H3.5v-8c0-0.5,0.4-0.9,0.9-0.9H15
	C15.6,40.8,16,41.2,16,41.7z M42.6,53.2v-5.3h10.6v5.3H42.6z M53.2,46.1H42.6v-5.3h10.6C53.2,40.8,53.2,46.1,53.2,46.1z M37.3,35.5
	H17.7c-2.4,0-4.4-2-4.4-4.4c0-2.2,1.7-4.1,3.9-4.4l0.6-0.1L18,26c0.7-2.3,2.8-3.8,5.1-3.8c1,0,1.9,0.3,2.8,0.8l0.8,0.5l0.4-0.9
	c0.9-1.9,2.8-3.1,4.8-3.1c2.9,0,5.3,2.4,5.3,5.3c0,0.2,0,0.5-0.1,0.8L37,26.5l0.9,0.1c2.1,0.3,3.8,2.2,3.8,4.4
	C41.7,33.5,39.7,35.5,37.3,35.5z M39.9,1.8h12.4c0.5,0,0.9,0.4,0.9,0.9v6.2H39V2.7C39,2.2,39.4,1.8,39.9,1.8z M39,11.5v-0.9h14.2
	v0.9c0,0.5-0.4,0.9-0.9,0.9H39.9C39.4,12.4,39,12,39,11.5z M47.9,16h-3.5v-1.8h3.5V16z"/>
<path class="st0" d="M44.4,42.6h1.8v1.8h-1.8V42.6z"/>
<path class="st0" d="M49.7,49.7h1.8v1.8h-1.8V49.7z"/>
<path class="st0" d="M47.9,42.6h3.5v1.8h-3.5V42.6z"/>
<path class="st0" d="M44.4,49.7h3.5v1.8h-3.5V49.7z"/>
</svg>
