<?xml version="1.0" encoding="utf-8"?>
<!-- Generator: Adobe Illustrator 22.1.0, SVG Export Plug-In . SVG Version: 6.00 Build 0)  -->
<svg height="55px" version="1.1" id="Capa_1" xmlns="http://www.w3.org/2000/svg" xmlns:xlink="http://www.w3.org/1999/xlink" x="0px" y="0px"
	 viewBox="0 0 56.9 55" style="enable-background:new 0 0 56.9 55;" xml:space="preserve">
<style type="text/css">
	.st0{fill:#FFFFFF;}
</style>
<g>
	<path class="st0" d="M12.3,36.9c-0.5-0.5-1.3-0.5-1.7,0c-0.5,0.5-0.5,1.3,0,1.7l6.7,6.7c0.2,0.2,0.6,0.4,0.9,0.4
		c0.3,0,0.6-0.1,0.9-0.4c0.5-0.5,0.5-1.3,0-1.7L12.3,36.9z"/>
	<path class="st0" d="M19.2,33.5c-0.5-0.5-1.3-0.5-1.7,0c-0.5,0.5-0.5,1.3,0,1.7l3.3,3.3c0.2,0.2,0.6,0.4,0.9,0.4
		c0.3,0,0.6-0.1,0.9-0.4c0.5-0.5,0.5-1.3,0-1.7L19.2,33.5z"/>
	<path class="st0" d="M55.7,3.9c-0.3-1.2-0.6-2-0.9-2.3c-0.4-0.5-1-0.7-1.6-0.7c-0.3,0-0.6,0.1-0.8,0.2c-0.3,0.1-0.6,0.3-0.9,0.4
		l-1.1-1.1c-0.5-0.5-1.3-0.5-1.7,0c-0.5,0.5-0.5,1.3,0,1.7l0.6,0.6c-0.5,0.3-1.1,0.6-1.6,0.9L47,2.9c-0.5-0.5-1.3-0.5-1.7,0
		c-0.5,0.5-0.5,1.3,0,1.7l0.2,0.2c-1,0.6-1.8,1-1.9,1.1c-0.1,0.1-0.2,0.1-0.2,0.2c-0.6,0.6-0.8,1.4-0.5,2.2l-15,15
		c-0.1,0-0.2-0.1-0.3-0.1c-0.6-0.3-1.2-0.6-1.7-1.1c-0.5-0.5,0.7-2.4,1.4-3.5c1.1-1.8,2.3-3.7,1-5.1c-0.3-0.3-0.7-0.6-1.4-0.6
		c-1.9,0-4.6,2.3-5.2,2.8c-2.1,2.1-3,3.8-3.8,5.4c-0.7,1.4-1.4,2.8-3.1,4.4c-1.2,1.2-2.8,1.8-4.5,2.5c-2,0.7-4,1.5-5.8,3.3
		c-7.6,7.6-0.2,15,2.6,17.7c2.8,2.8,6.5,5.9,10.6,5.9c2.5,0,4.9-1.1,7.1-3.3c1.8-1.8,2.5-3.8,3.3-5.8c0.6-1.7,1.3-3.3,2.5-4.5
		c1.2-1.2,2.1-1.6,3.2-2.1c1.1-0.5,2.4-1.1,3.9-2.6c3.7-3.7,3.4-5.4,2.5-6.3c-0.5-0.5-1.1-0.7-1.8-0.7c-0.8,0-1.8,0.3-2.8,0.6
		c-1,0.3-2,0.6-2.8,0.6c-0.6,0-0.9-0.1-1.2-0.4c-0.2-0.2-0.4-0.4-0.5-0.5l16.7-16.7c0.2,0.1,0.4,0.1,0.6,0.1c0.6,0,1.1-0.2,1.5-0.6
		l5.7-5.7C56,6.3,56.1,5.5,55.7,3.9z M44.3,10.2l1.4,1.4L30.9,26.3c-0.2-0.5-0.5-1.1-1.1-1.7l0,0L44.3,10.2z M32.6,33.3
		C32.6,33.3,32.6,33.3,32.6,33.3c1.2,0,2.5-0.4,3.6-0.8c0.6-0.2,1.3-0.4,1.7-0.5c-0.3,0.6-1.1,1.7-2.2,2.8c-1.2,1.2-2.1,1.6-3.2,2.1
		c-1.1,0.5-2.4,1.1-3.9,2.6c-1.6,1.6-2.3,3.5-3,5.4c-0.7,1.8-1.3,3.5-2.7,4.9c-1.8,1.8-3.5,2.6-5.4,2.6c-3.3,0-6.5-2.8-8.9-5.2
		c-1.8-1.8-4.1-4.3-4.9-6.9c-0.8-2.6,0-5,2.3-7.3c1.4-1.4,3.1-2,4.9-2.7c1.9-0.7,3.8-1.4,5.4-3c1.9-1.9,2.7-3.5,3.5-5
		c0.8-1.5,1.5-3,3.4-4.8c0.7-0.7,2-1.6,2.8-1.9c-0.3,0.5-0.7,1.3-1,1.8c-1.2,2-2.9,4.7-1,6.5c0.8,0.8,1.7,1.2,2.4,1.6
		c0.6,0.3,1.2,0.6,1.7,1.1c0.6,0.6,0.5,0.8,0.3,1.5c-0.2,1-0.6,2.4,1.1,4.2C30.4,32.9,31.4,33.3,32.6,33.3z M48.2,10.7l-2.9-2.9
		c1.4-0.8,5.3-3.1,7.8-4.2c0.2,0.5,0.4,1.4,0.4,1.9L48.2,10.7z"/>
</g>
</svg>
