<?xml version="1.0" standalone="no"?>
<!DOCTYPE svg PUBLIC "-//W3C//DTD SVG 20010904//EN"
 "http://www.w3.org/TR/2001/REC-SVG-20010904/DTD/svg10.dtd">
<svg version="1.0" xmlns="http://www.w3.org/2000/svg"
 width="700.000000pt" height="700.000000pt" viewBox="0 0 700.000000 700.000000"
 preserveAspectRatio="xMidYMid meet">
<metadata>
Created by potrace 1.11, written by Peter Selinger 2001-2013
</metadata>
<g transform="translate(0.000000,700.000000) scale(0.100000,-0.100000)"
fill="#000000" stroke="none">
<path d="M1535 6632 c-303 -106 -483 -412 -431 -734 3 -20 17 -67 31 -105 73
-195 231 -339 442 -403 l71 -21 -19 -57 c-25 -72 -52 -183 -73 -302 -14 -77
-24 -221 -25 -350 l-1 -65 -143 -1 c-167 -2 -228 -16 -315 -74 -66 -44 -98
-78 -136 -142 -80 -136 -77 -323 8 -456 64 -102 197 -185 314 -198 35 -3 112
-7 170 -8 99 -1 107 -2 108 -21 5 -78 20 -192 29 -225 3 -8 7 -33 11 -55 8
-56 70 -255 101 -329 160 -381 417 -691 753 -909 47 -30 109 -66 138 -81 48
-24 52 -29 53 -64 0 -20 1 -165 2 -322 l2 -285 -815 -2 c-448 -1 -849 -4 -891
-7 -248 -19 -469 -194 -556 -442 l-28 -79 -3 -337 -3 -338 3225 0 3226 0 1 83
c0 45 0 154 -1 241 l0 160 -289 288 -288 289 14 41 c18 54 18 152 -1 205 -58
165 -231 255 -401 208 -50 -13 -76 -28 -122 -70 -33 -29 -67 -72 -78 -94 l-18
-41 -292 0 -292 0 -18 40 c-21 47 -98 122 -150 147 l-35 17 2 150 3 150 382
383 383 383 0 250 0 250 40 20 c21 11 58 39 81 63 130 131 123 343 -15 471
-38 35 -122 76 -158 76 -59 0 -58 -2 -58 175 l0 162 62 -1 63 -1 24 -44 c32
-58 91 -114 149 -143 67 -33 206 -33 273 0 136 67 209 203 187 350 -16 104
-82 193 -176 239 -50 24 -69 28 -147 28 -74 0 -98 -4 -138 -23 -59 -30 -127
-95 -153 -147 l-19 -40 -115 0 -115 0 -5 230 c-3 127 -4 277 -2 336 l3 105 54
32 c186 111 217 360 64 513 -81 81 -212 114 -323 81 l-49 -14 -398 398 -397
397 -384 0 c-211 -1 -393 -2 -405 -2 -21 -1 -23 -6 -23 -55 l0 -53 -792 1
c-580 1 -804 5 -833 14 -84 24 -179 107 -200 173 -9 27 -44 24 -140 -9z"/>
</g>
</svg>
